<svg width="20" height="20" viewBox="0 0 20 20" fill="none" xmlns="http://www.w3.org/2000/svg">
<path d="M9.02344 10.4297H11.6016C12.4522 10.4297 13.1776 10.9162 13.4946 11.6994C13.6176 12.0033 13.9102 12.1877 14.219 12.1877C14.3166 12.1877 14.4159 12.1693 14.5119 12.1304C14.9118 11.9685 15.1048 11.513 14.9429 11.1131C14.3907 9.74875 13.0791 8.86719 11.6016 8.86719H9.02344C7.88183 8.86719 6.95312 7.93844 6.95312 6.79688V6.01562C6.95312 4.87406 7.88183 3.94531 9.02344 3.94531H11.5234C12.385 3.94531 13.0859 4.64625 13.0859 5.50781C13.0859 5.9393 13.4357 6.28906 13.8672 6.28906C14.2987 6.28906 14.6484 5.9393 14.6484 5.50781C14.6484 3.78469 13.2466 2.38281 11.5234 2.38281H10.8984V0.78125C10.8984 0.349766 10.5487 0 10.1172 0C9.6857 0 9.33594 0.349766 9.33594 0.78125V2.38281H9.02344C7.02031 2.38281 5.39062 4.0125 5.39062 6.01562V6.79688C5.39062 8.8 7.02031 10.4297 9.02344 10.4297Z" fill="white"/>
<path d="M14.5063 14.3517C14.1052 14.1929 13.6512 14.3893 13.4923 14.7905C13.1836 15.5703 12.4591 16.0547 11.6016 16.0547H8.125C7.26344 16.0547 6.5625 15.3537 6.5625 14.4922C6.5625 14.0607 6.21273 13.7109 5.78125 13.7109C5.34977 13.7109 5 14.0607 5 14.4922C5 16.2153 6.40187 17.6172 8.125 17.6172H9.33594V19.2188C9.33594 19.6502 9.6857 20 10.1172 20C10.5487 20 10.8984 19.6502 10.8984 19.2188V17.6172H11.6016C12.3441 17.6172 13.0507 17.4033 13.6448 16.9986C14.2305 16.5998 14.6801 16.0352 14.9452 15.3657C15.104 14.9646 14.9075 14.5106 14.5063 14.3517Z" fill="white"/>
</svg>
