<svg width="34" height="34" viewBox="0 0 34 34" fill="none" xmlns="http://www.w3.org/2000/svg">
<g clip-path="url(#clip0_408_7322)">
<path d="M32.6719 23.375C33.4054 23.375 34 22.7804 34 22.0469V5.3125C34 2.38319 31.6168 0 28.6875 0H5.3125C2.38319 0 0 2.38319 0 5.3125V28.6875C0 31.6168 2.38319 34 5.3125 34H28.6875C31.6168 34 34 31.6168 34 28.6875C34 27.954 33.4054 27.3594 32.6719 27.3594C31.9384 27.3594 31.3438 27.954 31.3438 28.6875C31.3438 30.1522 30.1522 31.3438 28.6875 31.3438H21.7148V19.7891H24.7031C25.4366 19.7891 26.0312 19.1945 26.0312 18.4609C26.0312 17.7274 25.4366 17.1328 24.7031 17.1328H21.7148V13.4805C21.7148 12.0158 22.9064 10.8242 24.3711 10.8242H25.0352C25.7687 10.8242 26.3633 10.2296 26.3633 9.49609C26.3633 8.76257 25.7687 8.16797 25.0352 8.16797H24.3711C21.4418 8.16797 19.0586 10.5512 19.0586 13.4805V17.1328H16.0703C15.3368 17.1328 14.7422 17.7274 14.7422 18.4609C14.7422 19.1945 15.3368 19.7891 16.0703 19.7891H19.0586V31.3438H5.3125C3.84784 31.3438 2.65625 30.1522 2.65625 28.6875V5.3125C2.65625 3.84784 3.84784 2.65625 5.3125 2.65625H28.6875C30.1522 2.65625 31.3438 3.84784 31.3438 5.3125V22.0469C31.3438 22.7804 31.9384 23.375 32.6719 23.375Z" fill="#FF368A"/>
</g>
<defs>
<clipPath id="clip0_408_7322">
<rect width="34" height="34" fill="white"/>
</clipPath>
</defs>
</svg>
