<svg width="95" height="28" viewBox="0 0 95 28" fill="none" xmlns="http://www.w3.org/2000/svg">
<g clip-path="url(#clip0_408_7338)">
<path d="M63.5333 16.6607V15.4464C63.5333 15.3392 63.4451 15.25 63.3393 15.25H63.0044C62.7576 15.25 62.5461 15.0357 62.5461 14.75V11.2678C62.5461 8.80352 61.4531 7.03567 59.0027 7.03567C57.7511 7.03567 56.4114 7.67852 56.0588 8.66067V7.05352C56.0588 6.89281 55.9001 6.76781 55.7591 6.83924C55.4947 6.98209 52.8857 6.98209 52.7094 7.05352C52.6741 7.07138 52.6565 7.10709 52.6565 7.14281V8.57138C52.6565 8.64281 52.727 8.67852 52.7975 8.67852C52.7975 8.67852 53.6437 8.69638 53.6437 9.30352V14.7678C53.6437 15.0357 53.4321 15.2678 53.1853 15.2678H51.6517C51.4049 15.2678 51.1933 15.0535 51.1933 14.7678V7.05352C51.1933 6.89281 51.0347 6.74995 50.8936 6.82138C50.5763 6.96424 48.0202 6.98209 47.8439 7.05352C47.8086 7.07138 47.791 7.10709 47.791 7.14281V8.57138C47.791 8.64281 47.8439 8.67852 47.932 8.67852C47.932 8.67852 48.7782 8.67852 48.7782 9.28567V14.7678C48.7782 15.0357 48.5667 15.2678 48.3199 15.2678H47.9849C47.8792 15.2678 47.791 15.3571 47.791 15.4642V16.6785C47.791 16.7857 47.8792 16.875 47.9849 16.875H56.8697C56.9755 16.875 57.0636 16.7857 57.0636 16.6785V15.4642C57.0636 15.3571 56.9755 15.2678 56.8697 15.2678H56.5348C56.288 15.2678 56.0764 15.0535 56.0764 14.7678C56.0764 14.7678 56.094 12.75 56.094 11.9107C56.094 10.6785 56.3408 8.67852 58.1389 8.67852C59.9194 8.67852 60.1838 10.6785 60.1838 11.9107C60.1838 12.3392 60.1662 14.7678 60.1662 14.7678C60.1662 15.0357 59.9547 15.2678 59.7079 15.2678H59.3729C59.2672 15.2678 59.179 15.3571 59.179 15.4642V16.6785C59.179 16.7857 59.2672 16.875 59.3729 16.875H60.1838H62.599H63.4099C63.4451 16.875 63.5333 16.7857 63.5333 16.6607Z" fill="#135978" fill-opacity="0.5"/>
<path d="M42.5909 7.05378C40.9338 7.05378 39.8056 8.67878 39.8056 8.67878V1.78592C39.8056 1.62521 39.6646 1.62521 39.5059 1.64307C38.7479 1.78592 36.6325 1.82164 36.4562 1.89307C36.4209 1.91092 36.4033 1.94664 36.4033 1.98235V3.39307C36.4033 3.46449 36.4738 3.50021 36.5443 3.50021C36.5443 3.50021 37.3905 3.50021 37.3905 4.10735V14.7324C37.3905 15.0002 37.179 15.2324 36.9322 15.2324H36.5972C36.4915 15.2324 36.4033 15.3216 36.4033 15.4288V16.6431C36.4033 16.7502 36.4915 16.8395 36.5972 16.8395H39.5236C39.6822 16.8395 39.8056 16.6966 39.8056 16.5359V16.0181C40.546 16.7145 41.498 16.8395 42.538 16.8395C44.9179 16.8395 46.9452 15.0002 46.9452 11.9109C46.9452 8.82164 45.2352 7.05378 42.5909 7.05378ZM41.7271 15.2502C40.7047 15.2502 39.8056 14.6431 39.8056 13.8216C39.8056 13.3931 39.8056 12.4466 39.8056 11.6609C39.8056 9.91092 40.7223 8.66092 41.8153 8.66092C43.2961 8.66092 43.8954 10.1966 43.8954 12.1788C43.8954 13.6966 43.1903 15.2502 41.7271 15.2502Z" fill="#135978" fill-opacity="0.5"/>
<path d="M14.9842 0H10.4184C10.3127 0 10.2069 0.107143 10.2069 0.232143V1.39286C10.2069 1.51786 10.295 1.625 10.4184 1.625H10.6829C10.9649 1.625 11.1941 1.875 11.1941 2.17857V7.05357H3.98404V2.17857C3.98404 1.875 4.21321 1.625 4.49527 1.625H4.7597C4.86547 1.625 4.97124 1.51786 4.97124 1.39286V0.232143C4.97124 0.107143 4.8831 0 4.7597 0H0.211542C0.105771 0 0 0.107143 0 0.232143V1.39286C0 1.51786 0.0881425 1.60714 0.211542 1.60714H0.493598C0.775654 1.60714 1.00482 1.85714 1.00482 2.16071V14.6964C1.00482 15 0.775654 15.25 0.493598 15.25H0.211542C0.105771 15.25 0 15.3571 0 15.4821V16.6607C0 16.7857 0.0881425 16.8929 0.211542 16.8929H4.7597C4.86547 16.8929 4.97124 16.7857 4.97124 16.6607V15.4821C4.97124 15.3571 4.8831 15.25 4.7597 15.25H4.49527C4.21321 15.25 3.98404 15 3.98404 14.6964V8.66071H11.1941V14.6964C11.1941 15 10.9649 15.25 10.6829 15.25H10.4184C10.3127 15.25 10.2069 15.3571 10.2069 15.4821V16.6607C10.2069 16.7857 10.295 16.8929 10.4184 16.8929H14.9842C15.09 16.8929 15.1958 16.7857 15.1958 16.6607V15.4821C15.1958 15.3571 15.1076 15.25 14.9842 15.25H14.7022C14.4201 15.25 14.1909 15 14.1909 14.6964V2.16071C14.1909 1.85714 14.4201 1.60714 14.7022 1.60714H14.9842C15.09 1.60714 15.1958 1.5 15.1958 1.375V0.214286C15.1958 0.107143 15.09 0 14.9842 0Z" fill="#135978" fill-opacity="0.5"/>
<path d="M26.4605 15.2499H25.9317C25.7025 15.2499 25.632 15.0713 25.632 14.8927V7.24988C25.632 7.07131 25.6144 7.03559 25.4381 7.03559C24.9269 7.03559 23.9573 6.96417 23.5166 6.82131C23.3755 6.76774 23.2169 6.87488 23.2169 7.03559V8.64274C22.9701 8.08917 22.0182 7.01774 20.7136 7.01774C18.1928 7.01774 16.0068 9.35702 16.0068 12.4642C16.0068 15.5713 17.9107 16.8392 20.4668 16.8392C22.0887 16.8392 23.2169 15.9999 23.2169 15.9999C23.2169 15.9999 23.305 16.8392 24.1336 16.8392H26.4605C26.5487 16.8392 26.6192 16.7677 26.6192 16.6785V15.3749C26.6192 15.3213 26.5487 15.2499 26.4605 15.2499ZM21.0486 15.2499C19.7617 15.2499 19.0742 13.7677 19.0742 12.1785C19.0742 10.4463 19.9732 8.66059 21.1544 8.66059C22.406 8.66059 23.2345 9.49988 23.2345 11.9463C23.2169 13.1963 22.9172 15.2499 21.0486 15.2499Z" fill="#135978" fill-opacity="0.5"/>
<path d="M80.8447 6.82129C78.0241 6.82129 75.7324 9.05343 75.7324 11.8391C75.7324 14.6249 77.8302 16.8749 80.8447 16.8749C82.4665 16.8749 83.8768 16.107 84.7406 15.0713C84.8111 14.9999 84.7935 14.8749 84.7406 14.8034C84.7406 14.8034 83.3832 13.9641 83.3656 13.9641C83.295 13.9106 83.2069 13.9463 83.154 13.9999C82.9425 14.3034 82.255 15.2677 80.8447 15.2499C78.7998 15.2499 78.8174 12.7856 78.8174 12.7856H85.7102C85.8336 12.7856 85.9393 12.6963 85.9393 12.5534C85.9217 8.62486 83.013 6.82129 80.8447 6.82129ZM78.7998 11.1249C78.7998 11.1249 78.7998 8.66057 80.8271 8.66057C82.8543 8.66057 82.872 11.1249 82.872 11.1249H78.7998Z" fill="#135978" fill-opacity="0.5"/>
<path d="M50.3771 5.1562C51.3567 4.60693 51.7494 3.42721 51.2543 2.52122C50.7592 1.61523 49.5638 1.32606 48.5842 1.87533C47.6046 2.4246 47.2119 3.60432 47.707 4.51031C48.2021 5.4163 49.3975 5.70547 50.3771 5.1562Z" fill="#135978" fill-opacity="0.5"/>
<path d="M34.851 7.08942C34.8334 7.08942 34.8157 7.07156 34.7805 7.07156C33.9167 6.91085 32.4359 7.44656 31.2724 8.66085V7.05371C31.2724 6.89299 31.1138 6.76799 30.9727 6.83942C30.7083 6.98228 28.0993 6.98228 27.923 7.05371C27.8877 7.07156 27.8701 7.10728 27.8701 7.14299V8.55371C27.8701 8.62514 27.923 8.66085 28.0111 8.66085C28.0111 8.66085 28.8573 8.66085 28.8573 9.26799V14.7501C28.8573 15.018 28.6458 15.2501 28.399 15.2501H28.064C27.9583 15.2501 27.8701 15.3394 27.8701 15.4466V16.6608C27.8701 16.768 27.9583 16.8573 28.064 16.8573H32.0833C32.1891 16.8573 32.2772 16.768 32.2772 16.6608V15.4466C32.2772 15.3394 32.1891 15.2501 32.0833 15.2501H31.7484C31.5016 15.2501 31.29 15.0358 31.29 14.7501V11.1073C31.29 9.30371 32.5417 8.66085 32.8414 8.66085C32.8414 9.71442 33.5818 10.4108 34.5161 10.4108C35.4327 10.4108 36.1908 9.66085 36.1908 8.71442C36.1555 7.92871 35.609 7.26799 34.851 7.08942Z" fill="#135978" fill-opacity="0.5"/>
<path d="M72.8057 7.53565C73.0173 7.37493 73.4756 7.19636 73.7577 7.60707C74.0397 8.01779 74.4276 8.24993 74.9035 8.24993C75.6616 8.24993 76.2609 7.62493 76.2609 6.87493C76.2609 6.33922 75.8907 5.41064 74.4628 5.41064C72.7881 5.41064 71.2897 7.5535 71.1839 7.51779C70.514 7.21422 69.7736 7.07136 68.9803 7.07136C66.1598 7.07136 63.8681 9.24993 63.8681 11.9642C63.8681 13.6785 64.7848 15.1785 66.1598 16.0535C65.6662 16.2499 65.296 16.8035 65.296 17.3928C65.296 17.9821 65.8425 18.5178 67.1822 18.8214C71.2192 19.7142 72.5413 21.4642 72.5413 23.2142C72.5413 25.5535 71.1663 26.3749 69.1214 26.3749C67.0765 26.3749 65.7015 25.3035 65.7015 23.2142C65.7015 20.7856 67.1999 20.4821 66.9178 20.1964C66.6358 19.8928 62.5283 20.0714 62.5283 23.2142C62.5283 26.1428 65.4547 27.9999 69.1214 27.9999C72.5413 27.9999 75.7144 26.5892 75.7144 23.2142C75.7144 18.9821 68.6278 17.9821 67.764 17.7321C67.0941 17.5356 67.3056 16.6071 67.8521 16.7499C68.2047 16.8571 68.5749 16.8571 68.9627 16.8571C71.7833 16.8571 74.075 14.6606 74.075 11.9285C74.075 10.6249 73.5285 9.41065 72.6647 8.53564C72.2945 8.12493 72.5942 7.69636 72.8057 7.53565ZM68.998 15.2499C67.7816 15.2499 66.9531 14.1249 66.9531 11.9999C66.9531 9.87493 67.7816 8.66065 68.998 8.66065C70.2143 8.66065 71.0429 9.87493 71.0429 11.9999C71.0429 14.1249 70.2143 15.2499 68.998 15.2499Z" fill="#135978" fill-opacity="0.5"/>
<path d="M93.6958 7.08942C93.6781 7.08942 93.6605 7.07156 93.6253 7.07156C92.7615 6.91085 91.2807 7.44656 90.1172 8.66085V7.05371C90.1172 6.89299 89.9585 6.76799 89.8175 6.83942C89.5531 6.98228 86.944 6.98228 86.7677 7.05371C86.7325 7.07156 86.7148 7.10728 86.7148 7.14299V8.55371C86.7148 8.62514 86.7677 8.66085 86.8559 8.66085C86.8559 8.66085 87.702 8.66085 87.702 9.26799V14.7501C87.702 15.018 87.4905 15.2501 87.2437 15.2501H86.9088C86.803 15.2501 86.7148 15.3394 86.7148 15.4466V16.6608C86.7148 16.768 86.803 16.8573 86.9088 16.8573H90.9281C91.0339 16.8573 91.122 16.768 91.122 16.6608V15.4466C91.122 15.3394 91.0339 15.2501 90.9281 15.2501H90.5931C90.3463 15.2501 90.1348 15.0358 90.1348 14.7501V11.1073C90.1348 9.30371 91.3864 8.66085 91.6861 8.66085C91.6861 9.71442 92.4265 10.4108 93.3608 10.4108C94.2775 10.4108 95.0355 9.66085 95.0355 8.71442C95.0003 7.92871 94.4362 7.26799 93.6958 7.08942Z" fill="#135978" fill-opacity="0.5"/>
<path d="M31.0443 21.3751C31.0443 20.6072 30.4978 20.0715 29.7045 20.0715H27.8535V23.8215H28.7526V22.6608H29.299C29.5987 23.0715 29.8808 23.4465 30.1805 23.8215H31.2382C30.9385 23.4287 30.6036 22.9644 30.2862 22.5715C30.7446 22.3572 31.0443 21.9108 31.0443 21.3751ZM29.6164 21.9465H28.7702V20.768H29.6164C30.0923 20.768 30.1628 21.1787 30.1628 21.3751C30.1452 21.768 29.8632 21.9465 29.6164 21.9465Z" fill="#135978" fill-opacity="0.5"/>
<path d="M36.2973 20.0715H35.1162L33.6706 21.6251V20.0715H32.7363V23.8215H33.6706V22.9644L34.1642 22.4108L35.1867 23.8215H36.2973L34.7812 21.7501L36.2973 20.0715Z" fill="#135978" fill-opacity="0.5"/>
<path d="M37.9893 23.8213H40.9332V23.0534H38.9236V22.357H40.704V21.5713H38.9236V20.8391H40.9332V20.0713H37.9893V23.8213Z" fill="#135978" fill-opacity="0.5"/>
<path d="M42.6084 20.8394H43.86V23.8215H44.7943V20.8394H46.046V20.0715H42.6084V20.8394Z" fill="#135978" fill-opacity="0.5"/>
<path d="M48.6726 20.0715H47.7383V23.8215H48.6726V20.0715Z" fill="#135978" fill-opacity="0.5"/>
<path d="M53.0096 22.2499L51.2115 20.0713H50.3477V23.8213H51.2467V21.6784L53.0096 23.8213H53.9086V20.0713H53.0096V22.2499Z" fill="#135978" fill-opacity="0.5"/>
<path d="M19.092 20.0715L17.9814 21.5358L16.8884 20.0715H15.9541V23.8215H16.8884V21.5358L17.9814 22.9822L19.092 21.5358V23.8215H20.0263V20.0715H19.092Z" fill="#135978" fill-opacity="0.5"/>
<path d="M24.2044 20.0715H23.6756L21.7012 23.8215H22.706L23.0233 23.1787H24.8567L25.1916 23.8215H26.1788L24.2044 20.0715ZM23.4111 22.393L23.94 21.2858L24.4689 22.393H23.4111Z" fill="#135978" fill-opacity="0.5"/>
<path d="M59.3731 21.6609H57.4868V22.4823H58.3859C58.2449 22.768 57.8747 22.9644 57.5221 22.9644C56.9756 22.9644 56.4996 22.5001 56.4996 21.9287C56.4996 21.3751 56.9756 20.9109 57.5221 20.9109C57.7865 20.9109 58.0686 21.0537 58.2801 21.2859C58.4211 21.1966 58.7737 20.9823 59.0558 20.8216C58.6856 20.3394 58.1215 20.0537 57.5221 20.0537C56.4644 20.0537 55.6006 20.893 55.6006 21.9287C55.6006 22.9644 56.4644 23.8037 57.5221 23.8037C58.5093 23.8037 59.3026 23.1251 59.3907 22.2144V22.1966C59.3907 22.1251 59.3907 22.0716 59.3907 22.0001C59.3907 21.9108 59.3907 21.8037 59.3731 21.7144V21.6609Z" fill="#135978" fill-opacity="0.5"/>
</g>
<defs>
<clipPath id="clip0_408_7338">
<rect width="95" height="28" fill="white"/>
</clipPath>
</defs>
</svg>
