<svg width="34" height="34" viewBox="0 0 34 34" fill="none" xmlns="http://www.w3.org/2000/svg">
<g clip-path="url(#clip0_408_7320)">
<path d="M17.3346 33.9999C17.222 33.9999 17.1095 33.9999 16.9961 33.9994C14.331 34.0059 11.8686 33.9382 9.47379 33.7924C7.27823 33.6588 5.27411 32.9001 3.67776 31.5984C2.13745 30.3424 1.08559 28.6441 0.551483 26.5513C0.0866395 24.7292 0.0619965 22.9407 0.0383911 21.2107C0.0212707 19.9695 0.00363159 18.4987 0 17.003C0.00363159 15.5011 0.0212707 14.0303 0.0383911 12.7891C0.0619965 11.0594 0.0866395 9.27084 0.551483 7.44856C1.08559 5.35573 2.13745 3.65744 3.67776 2.40142C5.27411 1.09976 7.27823 0.341015 9.47404 0.207424C11.8688 0.0619011 14.3318 -0.00606158 17.0026 0.000423414C19.6684 -0.00528337 22.1301 0.0619011 24.5249 0.207424C26.7205 0.341015 28.7246 1.09976 30.3209 2.40142C31.8615 3.65744 32.9131 5.35573 33.4472 7.44856C33.9121 9.27058 33.9367 11.0594 33.9603 12.7891C33.9774 14.0303 33.9953 15.5011 33.9987 16.9968C33.9953 18.4987 33.9774 19.9695 33.9603 21.2107C33.9505 21.9443 33.3445 22.5306 32.6143 22.5207C31.8807 22.5106 31.2945 21.9077 31.3043 21.1744C31.3212 19.9405 31.3391 18.4793 31.3425 16.9968C31.3391 15.5206 31.3212 14.0594 31.3043 12.8254C31.2828 11.2506 31.2605 9.62207 30.8735 8.10536C30.4831 6.57542 29.7324 5.34898 28.6424 4.46002C27.4634 3.49843 26.0237 2.95965 24.3636 2.85875C22.0251 2.71659 19.6179 2.65097 17.0026 2.65641C14.3811 2.65019 11.9736 2.71659 9.63513 2.85875C7.97498 2.95965 6.53557 3.49843 5.35634 4.45976C4.26634 5.34872 3.51564 6.57516 3.12524 8.10536C2.73822 9.62207 2.71591 11.2506 2.69438 12.8254C2.67752 14.0594 2.65988 15.5206 2.65625 17.003C2.65988 18.4793 2.67752 19.9405 2.69438 21.1744C2.71591 22.7492 2.73822 24.3777 3.12524 25.8945C3.51564 27.4244 4.26634 28.6508 5.35634 29.5398C6.53557 30.5014 7.97498 31.0402 9.63513 31.1411C11.9736 31.2832 14.3816 31.3496 16.9964 31.3431C19.6181 31.3494 22.0251 31.2832 24.3636 31.1411C26.0237 31.0402 27.4631 30.5014 28.6424 29.5398C29.4276 28.8993 30.041 28.0776 30.4657 27.097C30.7572 26.4241 31.5391 26.1147 32.2122 26.4062C32.8854 26.6978 33.1946 27.4796 32.9033 28.1528C32.3079 29.5273 31.4392 30.6866 30.3209 31.5984C28.7246 32.9003 26.7205 33.6588 24.5249 33.7924C22.2316 33.9319 19.8757 33.9999 17.3346 33.9999ZM25.2336 16.9999C25.2336 12.4228 21.5099 8.69912 16.9328 8.69912C12.356 8.69912 8.63203 12.4228 8.63203 16.9999C8.63203 21.577 12.356 25.3007 16.9328 25.3007C21.5099 25.3007 25.2336 21.577 25.2336 16.9999ZM22.5773 16.9999C22.5773 20.1122 20.0453 22.6444 16.9328 22.6444C13.8205 22.6444 11.2883 20.1122 11.2883 16.9999C11.2883 13.8876 13.8205 11.3554 16.9328 11.3554C20.0453 11.3554 22.5773 13.8876 22.5773 16.9999ZM26.1633 6.04287C25.0632 6.04287 24.1711 6.93469 24.1711 8.03506C24.1711 9.13543 25.0632 10.0272 26.1633 10.0272C27.2637 10.0272 28.1555 9.13543 28.1555 8.03506C28.1555 6.93469 27.2637 6.04287 26.1633 6.04287Z" fill="#FF368A"/>
</g>
<defs>
<clipPath id="clip0_408_7320">
<rect width="34" height="34" fill="white"/>
</clipPath>
</defs>
</svg>
