<svg width="25" height="25" viewBox="0 0 25 25" fill="none" xmlns="http://www.w3.org/2000/svg">
<path d="M0.855739 10.4292L9.41497 1.8489C9.79593 1.46701 10.4142 1.46633 10.7961 1.84719C11.178 2.2281 11.1787 2.84645 10.7978 3.22829L2.23772 11.8095C1.85701 12.1903 1.85701 12.8099 2.2386 13.1915L10.7978 21.7718C11.1787 22.1537 11.178 22.772 10.7961 23.1529C10.6055 23.3431 10.3559 23.4381 10.1064 23.4381C9.85608 23.4381 9.60574 23.3424 9.41492 23.1512L0.856568 14.5717C-0.285717 13.4294 -0.285717 11.5707 0.855739 10.4292Z" fill="#135978" fill-opacity="0.5"/>
<path d="M6.2979 11.5234H24.0234C24.5628 11.5234 25 11.9607 25 12.5001C25 13.0394 24.5628 13.4767 24.0234 13.4767H6.2979C5.7585 13.4767 5.32129 13.0395 5.32129 12.5001C5.32129 11.9606 5.7585 11.5234 6.2979 11.5234Z" fill="#135978" fill-opacity="0.5"/>
</svg>
