<svg width="87" height="60" viewBox="0 0 87 60" fill="none" xmlns="http://www.w3.org/2000/svg">
<g clip-path="url(#clip0_413_1034)">
<path d="M70.3751 38.0342C73.1017 24.632 65.3548 11.3556 53.072 8.3805C40.7891 5.40543 28.6215 13.8583 25.8949 27.2605C23.1683 40.6627 30.9152 53.9391 43.1981 56.9142C55.481 59.8892 67.6485 51.4364 70.3751 38.0342Z" fill="#FAB7D8"/>
<path d="M0.863281 22.2604C2.53656 26.1226 4.20983 29.8444 5.8831 33.7066C7.04152 33.1448 8.13559 32.5128 9.22965 31.951C7.49202 28.0888 5.8831 24.2969 4.20983 20.5049C3.05141 21.0667 1.95735 21.6987 0.863281 22.2604Z" fill="#FAB7D8"/>
<path d="M82.7893 20.9961C81.1161 24.8583 79.4428 28.58 77.7695 32.4422C78.9279 33.004 80.022 33.636 81.1161 34.1978C82.7893 30.4058 84.4626 26.6138 86.1359 22.7516C85.0418 22.1899 83.9478 21.6281 82.7893 20.9961Z" fill="#FAB7D8"/>
<path d="M79.3788 12.2885C78.156 15.0271 76.9332 17.7658 75.6461 20.5746C74.2946 19.8724 72.9431 19.1702 71.656 18.468C71.9778 17.7658 72.2995 17.1338 72.557 16.572C73.9085 13.5525 74.8738 10.533 74.8094 7.09209C74.7451 5.26633 74.4877 3.44057 73.5223 1.89569C72.4283 0.14015 70.5619 -0.491844 68.8243 0.421037C67.9876 0.912588 67.151 1.54458 66.5074 2.31702C63.4183 6.17921 63.4183 11.8672 66.4431 16.0102C67.2154 17.0636 68.1807 18.0467 69.146 19.1C68.5668 20.0831 67.9233 21.0662 67.3441 22.1195C63.6114 12.2885 54.7301 5.40677 44.433 5.40677C34.136 5.40677 25.2547 12.2885 21.522 22.1195C21.522 22.0493 21.4577 22.0493 21.4577 22.0493C21.0072 21.3471 20.621 20.6449 20.1705 20.0129C20.7498 19.3809 21.329 18.8893 21.8438 18.2573C24.6112 15.0271 25.7052 11.2352 24.5468 6.88143C23.9032 4.35345 22.6161 2.17658 20.428 0.842367C18.1755 -0.562066 15.923 0.210372 14.8289 2.73835C13.8636 4.98544 13.7992 7.37298 14.121 9.83074C14.5715 13.0609 15.8586 16.0102 17.3388 18.8893C17.4032 19.1 17.5319 19.2404 17.6606 19.5915C15.7943 20.5044 13.9923 21.4173 12.1259 22.26C10.5814 18.8191 9.10117 15.5889 7.62097 12.2885C6.46255 12.9205 5.43284 13.4823 4.27441 14.1143C7.4279 21.2066 10.5814 28.2288 13.7992 35.251C14.9576 34.619 15.9873 34.0572 17.1458 33.4954C15.7299 30.3355 14.3141 27.2457 12.9626 24.156C14.8933 23.1728 16.6953 22.26 18.626 21.3471C18.626 21.3471 18.626 21.3471 18.626 21.2769C18.626 21.2769 18.626 21.2769 18.6903 21.2769C19.2695 22.1897 19.8488 23.1026 20.428 24.0155C20.4923 24.0857 20.4923 24.1559 20.5567 24.2262L20.7498 24.5071C20.0418 27.035 19.6557 29.7737 19.6557 32.5123C19.6557 45.0118 27.4429 55.545 37.9974 58.6348C38.4479 58.7752 38.834 58.8454 39.2845 58.9859C39.4132 58.9859 39.5419 59.0561 39.6706 59.0561C39.735 59.0561 39.7994 59.0561 39.9281 59.1263C41.4083 59.4072 42.8885 59.5477 44.433 59.5477C46.1063 59.5477 47.7152 59.337 49.2598 59.0561V59.1263C49.839 58.9859 50.4182 58.8454 50.9974 58.705V58.6348C61.4876 55.4748 69.2104 45.0118 69.2104 32.5825C69.2104 29.7737 68.8243 27.035 68.052 24.5071C68.3094 24.156 68.4381 23.8751 68.4381 23.8751C69.1461 22.7515 69.854 21.628 70.5619 20.5044C70.6263 20.4342 70.6906 20.364 70.6906 20.364C72.1065 21.1364 73.458 21.8386 74.8094 22.5408C73.2005 26.1924 71.5273 29.8439 69.9183 33.5656C71.0768 34.1976 72.1065 34.7594 73.2005 35.3914C76.4184 28.299 79.5719 21.2769 82.7253 14.2547C81.5669 13.4823 80.4729 12.9205 79.3788 12.2885ZM19.0121 18.3276C18.3042 16.7125 17.5963 15.2378 16.9527 13.6227C16.1161 11.5863 15.6656 9.40941 15.7299 7.16231C15.7299 5.89832 15.923 4.63434 16.5022 3.51079C17.1458 2.17658 18.1111 1.89569 19.3339 2.59791C20.9428 3.51079 21.9725 5.12589 22.5517 6.95165C23.8389 11.0947 22.7448 14.5356 19.9775 17.4849C19.72 17.7658 19.3983 17.9764 19.0121 18.3276ZM21.3933 32.5123C21.3933 30.4057 21.6507 28.4395 22.1012 26.4733L22.1656 26.6137C22.4874 27.035 22.7448 27.4564 23.0666 27.8075C26.027 31.5994 29.0518 35.3212 32.0122 39.1132C34.0072 41.6411 36.0023 44.0989 37.4825 47.1184C38.5766 49.3655 39.2845 51.6828 39.0914 54.2108C39.0271 55.0535 38.7697 55.8961 38.5766 56.6686V56.7388C28.6656 53.9299 21.3933 44.1691 21.3933 32.5123ZM44.3687 57.5814C43.0172 57.5814 41.7301 57.441 40.4429 57.2303L40.5073 57.0197C40.7004 55.8961 40.8934 54.7726 40.9578 53.7193C41.0865 50.4188 39.9281 47.4695 38.3835 44.7309C36.7746 41.922 34.7795 39.4643 32.7845 37.0065C29.5666 32.9337 26.4131 28.7906 23.1953 24.7177C23.131 24.6475 23.0022 24.4368 22.8092 24.0857C25.9627 14.3951 34.4577 7.4432 44.433 7.4432C52.2202 7.4432 59.042 11.6565 63.2252 18.1169C58.9133 23.3835 54.4727 28.0884 48.6806 31.1781C49.0024 30.0546 49.3242 29.0012 49.5172 27.9479C50.0321 25.0688 49.839 22.1897 49.5816 19.3809C49.5172 18.3978 49.5172 17.4849 49.5172 16.5018C49.5172 16.2209 49.6459 15.94 49.6459 15.7294C50.74 15.94 51.9628 17.4849 52.1559 18.7489C52.2846 19.8022 52.0915 20.4342 50.8687 22.6111C51.3192 23.0324 51.7697 23.3835 52.1559 23.8048C55.1163 20.9258 54.2153 15.3782 50.4826 13.8334C49.3242 13.3418 48.2945 13.8334 47.9083 15.1676C47.4578 16.572 47.5865 17.9764 47.7152 19.4511C47.9727 22.1897 48.1657 24.9986 47.6509 27.7373C47.5222 28.3692 47.3935 29.0715 47.136 29.6332C45.9776 32.6528 42.8241 33.2145 40.8291 30.827C39.735 29.563 39.2845 27.9479 38.9627 26.3328C38.5766 24.2964 38.4479 22.1897 38.9627 20.1533C39.7994 16.9231 42.7598 15.4485 45.2697 17.0636C45.4628 17.204 45.6558 17.3444 45.9133 17.5551C45.9776 16.8529 46.1063 16.2209 46.1063 15.5889C46.1063 15.4485 45.8489 15.2378 45.7202 15.1676C42.8241 13.6227 39.2845 14.9569 37.8043 18.1169C36.8389 20.1533 36.6459 22.3302 36.8389 24.5773C37.032 27.035 37.5469 29.4226 38.834 31.5292C38.834 31.5292 38.834 31.5994 38.834 31.8101C33.9429 29.1417 29.9528 25.2795 26.027 21.2066C25.7696 21.8386 25.5122 22.3302 25.3191 22.892C25.2547 23.0324 25.3834 23.3133 25.5122 23.4537C28.0221 26.0519 30.6607 28.5097 33.4924 30.6866C35.23 32.0208 37.032 33.1443 38.9627 33.987C40.636 34.6892 42.2449 34.8296 44.0469 34.6892C48.6806 34.3381 52.2846 31.6697 55.8242 28.7906C58.6559 26.403 61.2302 23.6644 63.6114 20.7151C63.7401 20.5746 63.8688 20.4342 64.0619 20.1533C64.7698 21.4875 65.349 22.8217 65.8639 24.2964L65.5421 24.7177C65.4777 24.7879 65.4777 24.8582 65.4134 24.8582C63.1609 27.8075 60.9084 30.7568 58.5915 33.7763C56.2747 36.7256 53.9579 39.6749 51.7054 42.6945C50.2895 44.5904 49.1311 46.6971 48.4232 49.0144C47.5222 51.7531 47.2647 54.5619 48.2945 57.441C47.0717 57.441 45.7202 57.5814 44.3687 57.5814ZM67.3441 32.5123C67.3441 44.0989 60.0717 53.9299 50.2895 56.7388V56.6686C49.6459 55.2641 49.5172 53.7895 49.6459 52.3148C49.9677 49.506 50.9974 46.978 52.6064 44.7309C54.5371 41.9922 56.5965 39.3238 58.6559 36.7256C61.1658 33.4954 63.7401 30.2652 66.25 27.035C66.3144 26.9648 66.3787 26.8946 66.4431 26.8244C66.5074 26.7542 66.5718 26.6137 66.7005 26.4733C67.0866 28.3692 67.3441 30.4057 67.3441 32.5123ZM70.1114 17.204C65.2846 13.412 64.8342 7.23254 67.9876 3.51079C68.4381 3.01924 69.0173 2.59791 69.5966 2.2468C70.4976 1.82547 71.2055 2.10636 71.7847 2.94902C72.4926 4.00234 72.75 5.33655 72.8787 6.60054C73.0718 9.76051 72.1708 12.6396 70.948 15.3782C70.6906 16.0102 70.4332 16.572 70.1114 17.204Z" fill="white"/>
</g>
<defs>
<clipPath id="clip0_413_1034">
<rect width="87" height="60" fill="white"/>
</clipPath>
</defs>
</svg>
