<svg width="301" height="300" viewBox="0 0 301 300" fill="none" xmlns="http://www.w3.org/2000/svg">
<path d="M150 300C130.198 300 110.891 296.04 92.3267 287.871C74.505 280.198 58.4158 269.307 44.5545 255.198C30.6931 241.337 19.802 225.495 12.1287 207.673C3.9604 189.109 0 169.802 0 150C0 130.198 3.9604 110.891 12.1287 92.3267C19.802 74.505 30.6931 58.6634 44.5545 44.5545C58.4158 30.6931 74.505 19.802 92.3267 11.8812C110.891 3.9604 130.198 0 150 0C169.802 0 189.109 3.9604 207.673 12.1287C225.495 19.802 241.337 30.6931 255.446 44.5545C269.307 58.4158 280.198 74.505 288.119 92.3267C296.04 110.891 300.248 130.198 300.248 150C300.248 169.802 296.287 189.109 288.119 207.673C280.446 225.495 269.554 241.584 255.446 255.446C241.337 269.307 225.495 280.198 207.673 288.119C189.109 296.04 169.802 300 150 300ZM150 4.9505C130.941 4.9505 112.129 8.91089 94.3069 16.5842C77.2277 24.0099 61.6337 34.6535 48.0198 48.0198C34.6535 61.6337 24.0099 77.2277 16.5842 94.3069C8.91089 112.129 4.9505 130.941 4.9505 150C4.9505 169.059 8.91089 187.871 16.5842 205.693C24.0099 222.772 34.6535 238.366 48.0198 251.98C61.3861 265.347 76.9802 275.99 94.3069 283.416C112.129 291.089 130.941 295.05 150 295.05C169.059 295.05 187.871 291.089 205.693 283.416C222.772 275.99 238.366 265.347 251.98 251.98C265.347 238.614 275.99 223.02 283.416 205.693C291.089 187.871 295.05 169.059 295.05 150C295.05 130.941 291.089 112.129 283.416 94.3069C275.99 77.2277 265.347 61.6337 251.98 48.0198C238.366 34.6535 222.772 24.0099 205.693 16.5842C187.871 8.91089 169.059 4.9505 150 4.9505ZM150 288.366C75 288.366 11.6337 225 11.6337 150C11.6337 75 75 11.6337 150 11.6337C225 11.6337 288.366 75 288.366 150C288.366 225 225 288.366 150 288.366ZM150 16.5842C77.7228 16.5842 16.5842 77.7228 16.5842 150C16.5842 222.277 77.7228 283.416 150 283.416C222.277 283.416 283.416 222.277 283.416 150C283.416 77.7228 222.277 16.5842 150 16.5842Z" fill="#FAB7D8"/>
<path d="M150 275.248C133.416 275.248 117.079 271.782 101.733 265.347C86.8812 258.911 73.5149 249.753 61.8812 238.366C50.2475 226.733 41.0891 213.366 34.901 198.515C28.2178 183.168 25 166.832 25 150.248C25 127.723 32.6733 103.96 47.2772 82.1783C49.7525 78.4654 54.9505 77.4753 58.6634 79.9506C62.3762 82.4258 63.3663 87.6238 60.8911 91.3367C48.0198 110.644 41.3366 130.941 41.3366 150.495C41.3366 209.406 91.0891 259.158 150 259.158C208.911 259.158 258.663 209.406 258.663 150.495C258.663 91.5842 208.911 41.8318 150 41.8318C130.693 41.8318 110.149 48.5149 90.8416 61.3862C89.1089 62.6238 86.8812 63.1189 84.6535 62.6238C82.4258 62.1288 80.6931 60.8912 79.4554 59.1585C78.2178 57.4258 77.7228 55.1981 78.2178 52.9704C78.7129 50.7426 79.9505 49.01 81.6832 47.7723C103.713 33.1684 127.228 25.4951 149.752 25.4951C166.337 25.4951 182.673 28.9605 198.02 35.3961C212.871 41.8318 226.238 50.9902 237.871 62.3763C249.505 74.01 258.663 87.3763 264.852 102.228C271.535 117.574 274.753 133.911 274.753 150.495C274.753 167.079 271.287 183.416 264.852 198.762C258.416 213.614 249.257 226.98 237.871 238.614C226.238 250.248 212.871 259.406 198.02 265.594C182.921 271.782 166.584 275.248 150 275.248ZM53.9604 83.1684C52.9703 83.1684 51.7327 83.6634 51.2376 84.6535C37.1287 105.693 29.703 128.218 29.703 150C29.703 166.089 32.9208 181.683 39.3564 196.287C45.5446 210.644 54.2079 223.515 65.3465 234.654C76.4852 245.792 89.3564 254.456 103.713 260.644C118.564 267.079 134.158 270.297 150 270.297C165.842 270.297 181.683 267.079 196.287 260.644C210.644 254.456 223.515 245.792 234.654 234.654C245.792 223.515 254.455 210.644 260.644 196.287C267.079 181.436 270.297 165.842 270.297 150C270.297 134.158 267.079 118.317 260.644 103.713C254.455 89.3565 245.792 76.4852 234.654 65.3466C223.515 54.208 210.644 45.5446 196.287 39.3565C181.436 32.9209 165.842 29.703 150 29.703C128.218 29.703 105.693 37.1288 84.6535 51.2377C83.9109 51.7327 83.4158 52.4753 83.1683 53.2179C82.9208 53.9605 83.1683 54.9506 83.6634 55.6931C84.1584 56.4357 84.901 56.9308 85.6436 57.1783C86.3861 57.4258 87.3762 57.1783 88.1188 56.6832C108.168 43.3169 129.455 36.3862 150 36.3862C211.634 36.3862 263.614 88.3664 263.614 150C263.614 211.634 211.634 263.614 150 263.614C88.3663 263.614 36.3861 211.634 36.3861 150C36.3861 129.703 43.3168 108.168 56.6832 88.1189C57.6733 86.6337 57.1782 84.6535 55.6931 83.6634C55.198 83.1684 54.4554 83.1684 53.9604 83.1684Z" fill="#FAB7D8"/>
<path d="M68.8128 76.9802C64.3574 76.9802 60.6445 73.2673 60.6445 68.8119C60.6445 64.3564 64.3574 60.6436 68.8128 60.6436C73.2683 60.6436 76.9812 64.3564 76.9812 68.8119C76.9812 73.2673 73.2683 76.9802 68.8128 76.9802ZM68.8128 65.3465C67.0802 65.3465 65.595 66.8317 65.595 68.5643C65.595 70.297 67.0802 71.7822 68.8128 71.7822C70.5455 71.7822 72.0307 70.297 72.0307 68.5643C72.0307 66.8317 70.5455 65.3465 68.8128 65.3465Z" fill="#FAB7D8"/>
<path d="M132.674 215.841C125.743 215.841 119.555 213.119 114.605 208.416L79.9511 173.762C75.2482 169.059 72.5254 162.624 72.5254 155.693C72.5254 148.762 75.2482 142.574 79.9511 137.624C84.6541 132.921 91.0897 130.198 98.0204 130.198C104.951 130.198 111.139 132.921 116.09 137.624L132.674 154.208L183.664 103.218C188.367 98.5148 194.803 95.792 201.733 95.792C208.664 95.792 214.852 98.5148 219.803 103.218C224.506 107.921 227.228 114.356 227.228 121.287C227.228 128.218 224.506 134.406 219.803 139.356L150.743 208.416C146.04 213.119 139.605 215.841 132.674 215.841ZM98.0204 135.148C92.5749 135.148 87.3769 137.376 83.4165 141.089C79.4561 145.049 77.4759 150.247 77.4759 155.693C77.4759 161.139 79.7036 166.337 83.4165 170.297L118.07 204.95C122.03 208.911 127.228 210.891 132.674 210.891C138.119 210.891 143.317 208.663 147.278 204.95L216.337 135.891C220.298 131.931 222.278 126.733 222.278 121.287C222.278 115.841 220.05 110.643 216.337 106.683C212.377 102.723 207.179 100.742 201.733 100.742C196.288 100.742 191.09 102.97 187.129 106.683L132.674 161.139L112.624 141.089C108.912 137.376 103.714 135.148 98.0204 135.148ZM132.674 204.455C128.961 204.455 125.496 202.97 122.773 200.247L88.1194 165.594C85.3967 162.871 83.9115 159.406 83.9115 155.693C83.9115 151.98 85.3967 148.515 88.1194 145.792C90.8422 143.069 94.3076 141.584 98.0204 141.584C101.733 141.584 105.199 143.069 107.921 145.792L132.674 170.544L192.08 111.386C194.803 108.663 198.268 107.178 201.981 107.178C205.694 107.178 209.159 108.663 211.882 111.386C214.605 114.109 216.09 117.574 216.09 121.287C216.09 125 214.605 128.465 211.882 131.188L142.575 200.247C139.852 202.97 136.387 204.455 132.674 204.455ZM98.0204 146.782C95.5452 146.782 93.3175 147.772 91.5848 149.505C89.8521 151.238 89.1095 153.465 89.1095 155.693C89.1095 157.921 90.0996 160.396 91.8323 162.129L126.486 196.782C129.951 200.247 135.892 200.247 139.357 196.782L208.416 127.723C210.149 125.99 211.139 123.762 211.139 121.287C211.139 118.812 210.149 116.584 208.416 114.851C204.951 111.386 199.011 111.386 195.545 114.851L132.674 177.475L104.456 149.257C102.723 147.772 100.496 146.782 98.0204 146.782Z" fill="#FAB7D8"/>
</svg>
