<svg width="301" height="300" viewBox="0 0 301 300" fill="none" xmlns="http://www.w3.org/2000/svg">
<path d="M150 300C130.198 300 110.891 296.04 92.3267 287.871C74.505 280.198 58.4158 269.307 44.5545 255.198C30.6931 241.337 19.802 225.495 12.1287 207.673C3.9604 189.109 0 169.802 0 150C0 130.198 3.9604 110.891 12.1287 92.3267C19.802 74.505 30.6931 58.6634 44.5545 44.5545C58.4158 30.6931 74.505 19.802 92.3267 11.8812C110.891 3.9604 130.198 0 150 0C169.802 0 189.109 3.9604 207.673 12.1287C225.495 19.802 241.337 30.6931 255.446 44.5545C269.307 58.4158 280.198 74.505 288.119 92.3267C296.04 110.891 300.248 130.198 300.248 150C300.248 169.802 296.287 189.109 288.119 207.673C280.446 225.495 269.554 241.584 255.446 255.446C241.337 269.307 225.495 280.198 207.673 288.119C189.109 296.04 169.802 300 150 300ZM150 4.9505C130.941 4.9505 112.129 8.91089 94.3069 16.5842C77.2277 24.0099 61.6337 34.6535 48.0198 48.0198C34.6535 61.6337 24.0099 77.2277 16.5842 94.3069C8.91089 112.129 4.9505 130.941 4.9505 150C4.9505 169.059 8.91089 187.871 16.5842 205.693C24.0099 222.772 34.6535 238.366 48.0198 251.98C61.3861 265.347 76.9802 275.99 94.3069 283.416C112.129 291.089 130.941 295.05 150 295.05C169.059 295.05 187.871 291.089 205.693 283.416C222.772 275.99 238.366 265.347 251.98 251.98C265.347 238.614 275.99 223.02 283.416 205.693C291.089 187.871 295.05 169.059 295.05 150C295.05 130.941 291.089 112.129 283.416 94.3069C275.99 77.2277 265.347 61.6337 251.98 48.0198C238.366 34.6535 222.772 24.0099 205.693 16.5842C187.871 8.91089 169.059 4.9505 150 4.9505ZM150 288.366C75 288.366 11.6337 225 11.6337 150C11.6337 75 75 11.6337 150 11.6337C225 11.6337 288.366 75 288.366 150C288.366 225 225 288.366 150 288.366ZM150 16.5842C77.7228 16.5842 16.5842 77.7228 16.5842 150C16.5842 222.277 77.7228 283.416 150 283.416C222.277 283.416 283.416 222.277 283.416 150C283.416 77.7228 222.277 16.5842 150 16.5842Z" fill="#FAB7D8"/>
<path d="M150 275.248C133.416 275.248 117.079 271.782 101.733 265.347C86.8812 258.911 73.5149 249.753 61.8812 238.366C50.2475 226.733 41.0891 213.366 34.901 198.515C28.2178 183.168 25 166.832 25 150.248C25 127.723 32.6733 103.96 47.2772 82.1783C49.7525 78.4654 54.9505 77.4753 58.6634 79.9506C62.3762 82.4258 63.3663 87.6238 60.8911 91.3367C48.0198 110.644 41.3366 130.941 41.3366 150.495C41.3366 209.406 91.0891 259.158 150 259.158C208.911 259.158 258.663 209.406 258.663 150.495C258.663 91.5842 208.911 41.8318 150 41.8318C130.693 41.8318 110.149 48.5149 90.8416 61.3862C89.1089 62.6238 86.8812 63.1189 84.6535 62.6238C82.4258 62.1288 80.6931 60.8912 79.4554 59.1585C78.2178 57.4258 77.7228 55.1981 78.2178 52.9704C78.7129 50.7426 79.9505 49.01 81.6832 47.7723C103.713 33.1684 127.228 25.4951 149.752 25.4951C166.337 25.4951 182.673 28.9605 198.02 35.3961C212.871 41.8318 226.238 50.9902 237.871 62.3763C249.505 74.01 258.663 87.3763 264.852 102.228C271.535 117.574 274.753 133.911 274.753 150.495C274.753 167.079 271.287 183.416 264.852 198.762C258.416 213.614 249.257 226.98 237.871 238.614C226.238 250.248 212.871 259.406 198.02 265.594C182.921 271.782 166.584 275.248 150 275.248ZM53.9604 83.1684C52.9703 83.1684 51.7327 83.6634 51.2376 84.6535C37.1287 105.693 29.703 128.218 29.703 150C29.703 166.089 32.9208 181.683 39.3564 196.287C45.5446 210.644 54.2079 223.515 65.3465 234.654C76.4852 245.792 89.3564 254.456 103.713 260.644C118.564 267.079 134.158 270.297 150 270.297C165.842 270.297 181.683 267.079 196.287 260.644C210.644 254.456 223.515 245.792 234.654 234.654C245.792 223.515 254.455 210.644 260.644 196.287C267.079 181.436 270.297 165.842 270.297 150C270.297 134.158 267.079 118.317 260.644 103.713C254.455 89.3565 245.792 76.4852 234.654 65.3466C223.515 54.208 210.644 45.5446 196.287 39.3565C181.436 32.9209 165.842 29.703 150 29.703C128.218 29.703 105.693 37.1288 84.6535 51.2377C83.9109 51.7327 83.4158 52.4753 83.1683 53.2179C82.9208 53.9605 83.1683 54.9506 83.6634 55.6931C84.1584 56.4357 84.901 56.9308 85.6436 57.1783C86.3861 57.4258 87.3762 57.1783 88.1188 56.6832C108.168 43.3169 129.455 36.3862 150 36.3862C211.634 36.3862 263.614 88.3664 263.614 150C263.614 211.634 211.634 263.614 150 263.614C88.3663 263.614 36.3861 211.634 36.3861 150C36.3861 129.703 43.3168 108.168 56.6832 88.1189C57.6733 86.6337 57.1782 84.6535 55.6931 83.6634C55.198 83.1684 54.4554 83.1684 53.9604 83.1684Z" fill="#FAB7D8"/>
<path d="M68.8128 76.9802C64.3574 76.9802 60.6445 73.2673 60.6445 68.8119C60.6445 64.3564 64.3574 60.6436 68.8128 60.6436C73.2683 60.6436 76.9812 64.3564 76.9812 68.8119C76.9812 73.2673 73.2683 76.9802 68.8128 76.9802ZM68.8128 65.3465C67.0802 65.3465 65.595 66.8317 65.595 68.5643C65.595 70.297 67.0802 71.7822 68.8128 71.7822C70.5455 71.7822 72.0307 70.297 72.0307 68.5643C72.0307 66.8317 70.5455 65.3465 68.8128 65.3465Z" fill="#FAB7D8"/>
<path fill-rule="evenodd" clip-rule="evenodd" d="M132 132.033L135.465 135.498L182.072 88.8906C186.033 85.1777 191.23 82.9502 196.676 82.9502C202.123 82.9502 207.32 84.9307 211.281 88.8906C214.994 92.8516 217.221 98.0498 217.221 103.495C217.221 108.94 215.24 114.139 211.281 118.099L164.674 164.706L168.139 168.172L214.746 121.564C219.449 116.614 222.172 110.426 222.172 103.495C222.172 96.5645 219.449 90.1289 214.746 85.4258C209.795 80.7227 203.607 78 196.676 78C189.746 78 183.31 80.7227 178.607 85.4258L132 132.033ZM140.195 140.228L143.666 143.698L190.488 97.0596C193.953 93.5938 199.894 93.5938 203.359 97.0596C204.369 98.0684 205.125 99.2451 205.582 100.541C205.908 101.471 206.082 102.461 206.082 103.495C206.082 105.971 205.092 108.198 203.359 109.931L156.629 156.662L160.01 160.043L206.824 113.396C209.549 110.673 211.033 107.208 211.033 103.495C211.033 99.7822 209.549 96.3164 206.824 93.5938C204.101 90.8711 200.637 89.3857 196.924 89.3857C193.211 89.3857 189.746 90.8711 187.023 93.5938L140.195 140.228ZM168.172 168.139L164.706 164.673L118.099 211.281C114.139 214.994 108.941 217.221 103.495 217.221C98.0495 217.221 92.8515 215.241 88.8911 211.281C85.1782 207.32 82.9505 202.122 82.9505 196.677C82.9505 191.231 84.9307 186.033 88.8911 182.073L135.499 135.465L132.033 132L85.4257 178.608C80.7228 183.558 78 189.746 78 196.677C78 203.608 80.7228 210.043 85.4257 214.746C90.3762 219.449 96.5644 222.172 103.495 222.172C110.426 222.172 116.861 219.449 121.564 214.746L168.172 168.139ZM159.977 159.944L156.507 156.473L109.683 203.112C106.218 206.578 100.277 206.578 96.8119 203.112C95.0792 201.38 94.0891 199.152 94.0891 196.677C94.0891 194.202 95.0792 191.974 96.8119 190.241L143.543 143.51L140.161 140.128L93.3465 186.776C90.6238 189.499 89.1386 192.964 89.1386 196.677C89.1386 200.39 90.6238 203.855 93.3465 206.578C96.0693 209.301 99.5347 210.786 103.248 210.786C106.96 210.786 110.426 209.301 113.149 206.578L159.977 159.944ZM168.172 132.033L164.707 135.498L118.099 88.8911C114.139 85.1782 108.941 82.9505 103.495 82.9505C98.0497 82.9505 92.8517 84.9307 88.8913 88.8911C85.1784 92.8515 82.9507 98.0495 82.9507 103.495C82.9507 108.941 84.9309 114.139 88.8913 118.099L135.499 164.706L132.033 168.172L85.4259 121.564C80.723 116.614 78.0002 110.426 78.0002 103.495C78.0002 96.5644 80.723 90.1287 85.4259 85.4257C90.3764 80.7228 96.5646 78 103.495 78C110.426 78 116.862 80.7228 121.565 85.4257L168.172 132.033ZM159.977 140.228L156.507 143.698L109.683 97.0594C106.218 93.5941 100.277 93.5941 96.8121 97.0594C95.0794 98.7921 94.0893 101.02 94.0893 103.495C94.0893 105.97 95.0794 108.198 96.8121 109.931L143.543 156.662L140.162 160.044L93.3467 113.396C90.624 110.673 89.1388 107.208 89.1388 103.495C89.1388 99.7822 90.624 96.3168 93.3467 93.5941C96.0695 90.8713 99.5349 89.3861 103.248 89.3861C106.961 89.3861 110.426 90.8713 113.149 93.5941L159.977 140.228ZM132 168.139L135.465 164.673L182.073 211.281C186.033 214.994 191.231 217.221 196.677 217.221C202.122 217.221 207.32 215.241 211.281 211.281C214.994 207.32 217.221 202.122 217.221 196.677C217.221 191.231 215.241 186.033 211.281 182.073L164.673 135.465L168.139 132L214.746 178.608C219.449 183.558 222.172 189.746 222.172 196.677C222.172 203.608 219.449 210.043 214.746 214.746C209.796 219.449 203.608 222.172 196.677 222.172C189.746 222.172 183.31 219.449 178.608 214.746L132 168.139ZM140.195 159.944L143.665 156.473L190.489 203.112C193.954 206.578 199.895 206.578 203.36 203.112C205.093 201.38 206.083 199.152 206.083 196.677C206.083 194.202 205.093 191.974 203.36 190.241L156.629 143.51L160.011 140.128L206.825 186.776C209.548 189.499 211.033 192.964 211.033 196.677C211.033 200.39 209.548 203.855 206.825 206.578C204.103 209.301 200.637 210.786 196.924 210.786C193.211 210.786 189.746 209.301 187.023 206.578L140.195 159.944Z" fill="#FAB7D8"/>
</svg>
