<svg width="124" height="30" viewBox="0 0 124 30" fill="none" xmlns="http://www.w3.org/2000/svg">
<g clip-path="url(#clip0_459_2328)">
<path d="M46.211 5.00098H39.372C39.1456 5.00083 38.9266 5.08156 38.7544 5.2286C38.5822 5.37564 38.4683 5.57933 38.433 5.80298L35.667 23.34C35.6543 23.4214 35.6593 23.5045 35.6819 23.5838C35.7044 23.663 35.7438 23.7364 35.7974 23.7989C35.851 23.8615 35.9175 23.9116 35.9924 23.946C36.0672 23.9804 36.1486 23.9981 36.231 23.998H39.496C39.7225 23.9981 39.9417 23.9172 40.1139 23.77C40.286 23.6227 40.3999 23.4188 40.435 23.195L41.181 18.465C41.216 18.2413 41.3298 18.0375 41.5017 17.8903C41.6737 17.7431 41.8926 17.6621 42.119 17.662H44.284C48.789 17.662 51.389 15.482 52.068 11.162C52.374 9.27198 52.081 7.78698 51.196 6.74698C50.224 5.60498 48.5 5.00098 46.211 5.00098ZM47 11.406C46.626 13.86 44.751 13.86 42.938 13.86H41.906L42.63 9.27698C42.6512 9.14289 42.7195 9.02078 42.8227 8.9326C42.926 8.84443 43.0572 8.79598 43.193 8.79598H43.666C44.901 8.79598 46.066 8.79598 46.668 9.49998C47.027 9.91998 47.137 10.544 47 11.406ZM66.654 11.327H63.379C63.2432 11.327 63.112 11.3754 63.0087 11.4636C62.9055 11.5518 62.8372 11.6739 62.816 11.808L62.671 12.724L62.442 12.392C61.733 11.363 60.152 11.019 58.574 11.019C54.955 11.019 51.864 13.76 51.262 17.605C50.949 19.523 51.394 21.357 52.482 22.636C53.48 23.812 54.908 24.302 56.607 24.302C59.523 24.302 61.14 22.427 61.14 22.427L60.994 23.337C60.981 23.4183 60.9858 23.5016 61.008 23.5809C61.0303 23.6602 61.0694 23.7338 61.1229 23.7965C61.1763 23.8593 61.2427 23.9097 61.3174 23.9443C61.3922 23.9789 61.4736 23.9969 61.556 23.997H64.506C64.7325 23.9971 64.9517 23.9162 65.1239 23.769C65.296 23.6217 65.4099 23.4178 65.445 23.194L67.215 11.985C67.228 11.9038 67.2233 11.8208 67.2011 11.7416C67.1789 11.6624 67.1397 11.589 67.0864 11.5265C67.0331 11.4639 66.9668 11.4137 66.8921 11.3792C66.8175 11.3448 66.7362 11.327 66.654 11.327ZM62.089 17.701C61.773 19.572 60.288 20.828 58.394 20.828C57.443 20.828 56.683 20.523 56.195 19.945C55.711 19.371 55.527 18.554 55.681 17.644C55.976 15.789 57.486 14.492 59.351 14.492C60.281 14.492 61.037 14.801 61.535 15.384C62.034 15.973 62.232 16.795 62.089 17.701ZM84.096 11.327H80.805C80.6498 11.3272 80.497 11.3653 80.3598 11.438C80.2227 11.5107 80.1054 11.6157 80.018 11.744L75.479 18.43L73.555 12.005C73.4959 11.809 73.3754 11.6373 73.2111 11.5152C73.0469 11.3931 72.8477 11.3271 72.643 11.327H69.409C69.3182 11.3267 69.2287 11.3482 69.1479 11.3895C69.0671 11.4309 68.9973 11.4909 68.9444 11.5647C68.8914 11.6384 68.8569 11.7238 68.8436 11.8136C68.8303 11.9034 68.8387 11.9951 68.868 12.081L72.493 22.719L69.085 27.53C69.0244 27.6153 68.9885 27.7156 68.9812 27.82C68.9738 27.9243 68.9953 28.0287 69.0433 28.1216C69.0914 28.2146 69.164 28.2925 69.2534 28.3469C69.3428 28.4013 69.4454 28.43 69.55 28.43H72.837C72.9905 28.4302 73.1417 28.3932 73.2777 28.3221C73.4137 28.2511 73.5305 28.1481 73.618 28.022L84.564 12.222C84.6233 12.1365 84.6581 12.0364 84.6646 11.9326C84.6711 11.8287 84.649 11.7251 84.6008 11.6329C84.5526 11.5406 84.4801 11.4634 84.3911 11.4095C84.3021 11.3556 84.2 11.327 84.096 11.327Z" fill="white"/>
<path d="M94.9924 5.001H88.1524C87.9262 5.0011 87.7074 5.08192 87.5354 5.22895C87.3635 5.37597 87.2497 5.57953 87.2144 5.803L84.4484 23.34C84.4355 23.4212 84.4404 23.5043 84.4628 23.5835C84.4851 23.6626 84.5243 23.736 84.5777 23.7985C84.6312 23.8611 84.6975 23.9113 84.7722 23.9457C84.8469 23.9802 84.9282 23.998 85.0104 23.998H88.5204C88.6788 23.9978 88.8318 23.941 88.9521 23.838C89.0723 23.735 89.1519 23.5924 89.1764 23.436L89.9614 18.465C89.9964 18.2413 90.1102 18.0375 90.2822 17.8903C90.4541 17.7431 90.673 17.6621 90.8994 17.662H93.0634C97.5694 17.662 100.168 15.482 100.848 11.162C101.155 9.272 100.86 7.787 99.9754 6.747C99.0044 5.605 97.2814 5.001 94.9924 5.001ZM95.7814 11.406C95.4084 13.86 93.5334 13.86 91.7194 13.86H90.6884L91.4134 9.277C91.4342 9.14291 91.5023 9.0207 91.6054 8.93247C91.7085 8.84424 91.8397 8.79583 91.9754 8.796H92.4484C93.6824 8.796 94.8484 8.796 95.4504 9.5C95.8094 9.92 95.9184 10.544 95.7814 11.406ZM115.434 11.327H112.161C112.026 11.3266 111.894 11.375 111.791 11.4632C111.688 11.5515 111.62 11.6738 111.599 11.808L111.454 12.724L111.224 12.392C110.515 11.363 108.935 11.019 107.357 11.019C103.738 11.019 100.648 13.76 100.046 17.605C99.7344 19.523 100.177 21.357 101.265 22.636C102.265 23.812 103.691 24.302 105.39 24.302C108.306 24.302 109.923 22.427 109.923 22.427L109.777 23.337C109.764 23.4185 109.769 23.5019 109.792 23.5814C109.814 23.6609 109.853 23.7345 109.907 23.7973C109.961 23.8601 110.027 23.9104 110.102 23.9449C110.177 23.9794 110.259 23.9972 110.341 23.997H113.29C113.517 23.9969 113.736 23.9159 113.908 23.7687C114.08 23.6215 114.193 23.4177 114.228 23.194L115.999 11.985C116.012 11.9036 116.007 11.8204 115.984 11.7411C115.961 11.6619 115.922 11.5885 115.868 11.526C115.815 11.4635 115.748 11.4133 115.673 11.379C115.598 11.3446 115.517 11.3269 115.434 11.327ZM110.869 17.701C110.555 19.572 109.068 20.828 107.174 20.828C106.225 20.828 105.463 20.523 104.975 19.945C104.491 19.371 104.309 18.554 104.461 17.644C104.758 15.789 106.266 14.492 108.131 14.492C109.061 14.492 109.817 14.801 110.315 15.384C110.816 15.973 111.014 16.795 110.869 17.701ZM119.295 5.482L116.488 23.34C116.476 23.4212 116.48 23.5043 116.503 23.5835C116.525 23.6626 116.564 23.736 116.618 23.7985C116.671 23.8611 116.737 23.9113 116.812 23.9457C116.887 23.9802 116.968 23.998 117.05 23.998H119.872C120.341 23.998 120.739 23.658 120.811 23.195L123.579 5.659C123.592 5.57771 123.587 5.49461 123.565 5.4154C123.543 5.33619 123.504 5.26275 123.45 5.20013C123.397 5.13752 123.33 5.0872 123.256 5.05266C123.181 5.01811 123.1 5.00015 123.017 5H119.857C119.722 5.00048 119.591 5.04925 119.488 5.13757C119.385 5.22589 119.317 5.34799 119.295 5.482Z" fill="white"/>
<path d="M23.0471 7.66699C23.0191 7.84599 22.9871 8.02899 22.9511 8.21699C21.7141 14.568 17.4821 16.762 12.0771 16.762H9.32515C8.66415 16.762 8.10715 17.242 8.00415 17.894L6.59515 26.83L6.19615 29.363C6.18025 29.4635 6.18632 29.5662 6.21393 29.6641C6.24155 29.762 6.29005 29.8528 6.3561 29.9301C6.42215 30.0075 6.50419 30.0696 6.59655 30.1122C6.68892 30.1548 6.78942 30.1769 6.89115 30.177H11.7721C12.3501 30.177 12.8411 29.757 12.9321 29.187L12.9801 28.939L13.8991 23.107L13.9581 22.787C14.0481 22.215 14.5401 21.795 15.1181 21.795H15.8481C20.5771 21.795 24.2791 19.875 25.3611 14.319C25.8131 11.998 25.5791 10.06 24.3831 8.69699C24.0041 8.27535 23.5513 7.92632 23.0471 7.66699Z" fill="white" fill-opacity="0.5"/>
<path d="M21.7549 7.15139C21.3599 7.03713 20.9581 6.94795 20.5519 6.88439C19.7492 6.76103 18.9379 6.70184 18.1259 6.70739H10.7739C10.4941 6.70717 10.2234 6.80706 10.0109 6.989C9.79829 7.17093 9.65783 7.42291 9.61486 7.69939L8.05086 17.6054L8.00586 17.8944C8.05458 17.579 8.21456 17.2915 8.45686 17.0839C8.69916 16.8763 9.00777 16.7622 9.32686 16.7624H12.0789C17.4839 16.7624 21.7159 14.5674 22.9529 8.21739C22.9899 8.02939 23.0209 7.84639 23.0489 7.66739C22.7224 7.49622 22.3823 7.35271 22.0319 7.23839C21.94 7.20791 21.8477 7.1789 21.7549 7.15139Z" fill="#FFCCE2"/>
<path d="M9.61391 7.699C9.65652 7.42245 9.79691 7.17035 10.0096 6.9885C10.2222 6.80666 10.4931 6.70713 10.7729 6.708H18.1249C18.9959 6.708 19.8089 6.765 20.5509 6.885C21.053 6.96391 21.5482 7.08194 22.0319 7.238C22.3969 7.359 22.7359 7.502 23.0489 7.667C23.4169 5.32 23.0459 3.722 21.7769 2.275C20.3779 0.682 17.8529 0 14.6219 0H5.24191C4.58191 0 4.01891 0.48 3.91691 1.133L0.00990971 25.898C-0.00828844 26.013 -0.00136467 26.1305 0.0302048 26.2426C0.0617742 26.3546 0.11724 26.4585 0.192787 26.5471C0.268334 26.6356 0.362169 26.7068 0.467837 26.7556C0.573506 26.8045 0.6885 26.8298 0.80491 26.83H6.59591L8.04991 17.605L9.61391 7.699Z" fill="white"/>
</g>
<defs>
<clipPath id="clip0_459_2328">
<rect width="124" height="30" fill="white"/>
</clipPath>
</defs>
</svg>
