<svg width="20" height="20" viewBox="0 0 20 20" fill="none" xmlns="http://www.w3.org/2000/svg">
<g clip-path="url(#clip0_408_7577)">
<path d="M19.998 16.1153C19.9702 15.3417 19.6479 14.6197 19.0907 14.0824C17.9996 13.0303 17.0855 12.423 16.2138 12.1711C15.0128 11.824 13.9003 12.1396 12.9075 13.1092C12.906 13.1107 12.9046 13.1122 12.9031 13.1137L11.8468 14.162C11.1867 13.7899 9.90312 12.9729 8.51632 11.5861L8.41351 11.4833C7.02648 10.0964 6.20949 8.81252 5.83773 8.15315L6.88616 7.09686C6.88765 7.09537 6.88913 7.09389 6.89062 7.09237C7.86019 6.09963 8.17581 4.98721 7.82874 3.78608C7.57683 2.91447 6.96952 2.00033 5.91741 0.909278C5.38015 0.352129 4.65823 0.0298631 3.8846 0.00197251C3.1105 -0.0259572 2.36769 0.243496 1.79159 0.760606L1.76917 0.780762C1.75878 0.790098 1.74862 0.799746 1.7387 0.809629C0.591867 1.95647 -0.00930517 3.56197 0.00010889 5.45264C0.0161636 8.66444 1.78136 12.3374 4.72195 15.278C5.27644 15.8324 5.90663 16.3812 6.59499 16.909C6.93738 17.1715 7.42777 17.1068 7.69031 16.7644C7.95288 16.422 7.88812 15.9316 7.5457 15.669C6.91152 15.1828 6.3332 14.6795 5.82679 14.1732C3.1707 11.5171 1.57659 8.2542 1.56257 5.44486C1.55534 3.98877 1.99335 2.77342 2.82941 1.92865L2.83538 1.92326C3.40323 1.41354 4.26296 1.44455 4.79273 1.99389C6.81534 4.09147 6.6689 5.08174 5.77515 5.99822L4.32695 7.45729C4.09984 7.68612 4.03659 8.03096 4.16773 8.32549C4.20448 8.40807 5.0939 10.3734 7.30894 12.5885L7.41179 12.6912C9.62656 14.906 11.5919 15.7953 11.6745 15.8321C11.969 15.9633 12.3139 15.9 12.5427 15.6729L14.0018 14.2247C14.9184 13.3309 15.9087 13.1845 18.0061 15.2071C18.5555 15.7368 18.5865 16.5966 18.0769 17.1644L18.0713 17.1705C17.2335 17.9998 16.031 18.4374 14.5908 18.4374C14.5789 18.4374 14.5671 18.4374 14.5552 18.4373C13.4039 18.4316 12.0709 18.116 10.7001 17.5248C10.304 17.3538 9.84421 17.5365 9.67335 17.9327C9.50245 18.3289 9.68507 18.7886 10.0813 18.9595C11.6657 19.6429 13.1683 19.9929 14.5474 19.9998C14.562 19.9999 14.5766 19.9999 14.5912 19.9999C16.4628 19.9999 18.0524 19.3992 19.1904 18.2612C19.2003 18.2513 19.2099 18.2412 19.2192 18.2308L19.2395 18.2082C19.7566 17.6322 20.026 16.8889 19.998 16.1153Z" fill="white"/>
</g>
<defs>
<clipPath id="clip0_408_7577">
<rect width="20" height="20" fill="white"/>
</clipPath>
</defs>
</svg>
