<svg width="34" height="34" viewBox="0 0 34 34" fill="none" xmlns="http://www.w3.org/2000/svg">
<g clip-path="url(#clip0_408_7326)">
<path d="M29.966 7.63566L29.9492 7.57029C31.3896 6.70676 32.5527 5.28318 33.0702 3.65234C31.7208 4.45518 30.1421 5.06399 28.5546 5.3789C27.2815 4.0225 25.583 3.1875 23.5742 3.1875C19.7245 3.1875 16.5351 6.30443 16.5351 10.1601C16.5351 10.751 16.5839 11.3233 16.649 11.8244C13.2592 11.5611 10.0738 10.4613 7.16075 8.54485C4.61709 6.87173 3.24591 5.16852 3.23424 5.154C2.86071 4.6806 2.21506 4.51795 1.66229 4.75842C1.10925 4.99888 0.787595 5.58149 0.878644 6.17732C0.910291 6.38303 1.55879 10.4488 4.00932 13.9914C3.43813 13.9025 3.09728 13.7437 3.03191 13.7113C2.55773 13.4304 1.97642 13.482 1.54504 13.8259C1.11107 14.172 0.955945 14.7616 1.12896 15.2889C1.18499 15.4602 2.35047 18.8585 6.6059 20.6595C5.69411 20.9226 4.88531 20.9181 4.87493 20.9181C4.86586 20.9181 4.85678 20.9179 4.8477 20.9179C4.28558 20.9179 3.78313 21.2725 3.59558 21.8043C3.40466 22.3446 3.58235 22.9464 4.03578 23.2968C4.13824 23.3759 6.04326 24.8234 9.13918 25.5549C8.0562 26.151 6.77788 26.5097 5.31384 26.6267C3.28768 26.7886 1.65814 26.4047 1.64491 26.4013C0.971249 26.2363 0.284103 26.6171 0.0669869 27.2757C-0.150129 27.9344 0.176453 28.6493 0.816389 28.9167C1.00808 28.9966 5.56338 30.8785 10.094 30.8785C13.239 30.8785 15.5946 30.5921 17.7312 29.9499C20.3976 29.1481 22.6614 27.7808 24.6512 25.7699C25.1671 25.2485 25.1627 24.4076 24.6413 23.8916C24.1197 23.3757 23.279 23.3801 22.763 23.9017C19.2147 27.4877 15.1321 28.2225 10.094 28.2225C9.976 28.2225 9.85798 28.221 9.73969 28.2179C11.1451 27.5728 12.3503 26.6527 13.3126 25.4784C13.6335 25.0867 13.7041 24.5469 13.494 24.0859C13.2841 23.6252 12.8304 23.3241 12.3243 23.309C10.9376 23.2683 9.71271 23.0027 8.70365 22.673C9.4528 22.2924 10.1825 21.7519 10.7581 20.9843C11.0346 20.6157 11.1002 20.1301 10.9316 19.7013C10.763 19.2725 10.384 18.9618 9.93061 18.8803C7.70082 18.4795 6.21991 17.582 5.25936 16.6985C5.79839 16.6705 6.3906 16.5888 7.0295 16.4293C7.49797 16.312 7.86606 15.9499 7.99057 15.4832C8.11508 15.0168 7.97682 14.5193 7.62897 14.1844C6.4251 13.0244 5.55015 11.5868 4.92422 10.2307C5.14263 10.3871 5.37039 10.5446 5.60696 10.702C8.24348 12.4542 12.5791 14.5429 18.262 14.5429C18.6752 14.5429 19.0648 14.3497 19.3159 14.0215C19.5673 13.6936 19.6513 13.2662 19.5439 12.8672C19.5403 12.8542 19.1916 11.5451 19.1916 10.1601C19.1916 9.01644 19.6479 7.9363 20.4767 7.11894C21.3102 6.29665 22.4103 5.84374 23.5744 5.84374C24.7513 5.84374 25.7754 6.29898 26.6182 7.19676C27.2268 7.76951 27.8908 9.29685 27.8908 10.2187V11.0234C27.8908 11.0514 27.8937 11.0896 27.9004 11.1347C27.8947 11.1855 27.8908 11.2369 27.8908 11.289C27.8908 14.3082 27.3321 16.996 26.2299 19.2777C25.9108 19.9384 26.1879 20.7324 26.8483 21.0515C27.0346 21.1412 27.2312 21.1838 27.4249 21.1838C27.9188 21.1838 28.3928 20.9073 28.6218 20.4331C29.8993 17.788 30.5471 14.7115 30.5471 11.289C30.5471 11.2384 30.5434 11.1886 30.538 11.1396C30.5442 11.094 30.5471 11.0545 30.5471 11.0234V10.0937C31.9115 9.10827 33.0669 7.77729 34.0002 6.37499C33.9999 6.37499 31.5517 7.53502 29.966 7.63566Z" fill="#FF368A"/>
</g>
<defs>
<clipPath id="clip0_408_7326">
<rect width="34" height="34" fill="white"/>
</clipPath>
</defs>
</svg>
