<svg width="34" height="34" viewBox="0 0 34 34" fill="none" xmlns="http://www.w3.org/2000/svg">
<g clip-path="url(#clip0_408_7328)">
<path d="M27.2869 6.88191C24.9225 6.65042 21.2186 6.37449 16.9998 6.37449C12.7809 6.37449 9.07698 6.65035 6.71268 6.88191C4.86881 7.06241 3.39994 8.46779 3.14056 10.2996C2.81888 12.571 2.65578 14.8252 2.65578 16.9997C2.65578 19.1743 2.81888 21.4285 3.14056 23.6999C3.39994 25.5317 4.86881 26.9371 6.71268 27.1176C9.07705 27.3491 12.7809 27.625 16.9998 27.625C21.2186 27.625 24.9226 27.3491 27.2869 27.1176C29.1308 26.9371 30.5996 25.5317 30.859 23.6999C30.9619 22.9736 31.634 22.4681 32.3602 22.5711C33.0866 22.6739 33.5919 23.346 33.4891 24.0723C33.0572 27.1216 30.6132 29.461 27.5456 29.7613C25.1225 29.9985 21.3258 30.2812 16.9997 30.2812C12.6736 30.2812 8.87703 29.9985 6.45382 29.7613C3.3862 29.461 0.942205 27.1216 0.510357 24.0723C-0.170119 19.2425 -0.170119 14.757 0.510357 9.92716C0.942205 6.87793 3.3862 4.53846 6.45382 4.23823C8.87696 4.00102 12.6736 3.71826 16.9997 3.71826C21.3258 3.71826 25.1224 4.00102 27.5456 4.23823C30.6132 4.53846 33.0572 6.87793 33.4891 9.92722C33.8281 12.3215 34 14.7011 34 16.9997C33.9306 18.7602 31.414 18.7623 31.3437 16.9997C31.3437 14.8252 31.1806 12.571 30.8589 10.2997C30.5996 8.46779 29.1308 7.06241 27.2869 6.88191ZM22.1469 14.8659C23.8636 15.8246 23.8633 18.4076 22.1469 19.3659L16.4455 22.6743C15.6344 23.1449 14.6649 23.1466 13.8523 22.6785C13.0372 22.2091 12.5505 21.3664 12.5505 20.4243V13.8075C12.5505 12.8654 13.0372 12.0228 13.8523 11.5533C14.6649 11.0853 15.6344 11.087 16.4455 11.5576L22.1469 14.8659ZM20.7317 17.116L15.2068 13.91V20.322L20.7317 17.116Z" fill="#FF368A"/>
</g>
<defs>
<clipPath id="clip0_408_7328">
<rect width="34" height="34" fill="white"/>
</clipPath>
</defs>
</svg>
